<svg width="306" height="60" viewBox="0 0 306 60" fill="none" xmlns="http://www.w3.org/2000/svg">
<path d="M12.35 50L10.42 56.16L8.19 50.23H7.96L5.78 56.15L3.81 50H3.27L5.55 57H5.98L8.08 51.3L10.22 57H10.65L12.88 50H12.35ZM16.2269 57.11C17.8469 57.11 19.0569 55.91 19.0569 54.3C19.0569 52.7 17.8469 51.5 16.2269 51.5C14.6169 51.5 13.3969 52.69 13.3969 54.3C13.3969 55.91 14.6169 57.11 16.2269 57.11ZM16.2269 56.64C14.8969 56.64 13.8969 55.65 13.8969 54.31C13.8969 52.96 14.8869 51.97 16.2269 51.97C17.5669 51.97 18.5569 52.96 18.5569 54.3C18.5569 55.65 17.5669 56.64 16.2269 56.64ZM26.4419 51.5C25.5819 51.5 24.8719 51.97 24.5319 52.74C24.2719 51.98 23.6519 51.5 22.8319 51.5C22.0319 51.5 21.3619 51.9 20.9919 52.56L20.9119 51.6H20.5419V57H21.0319V53.9C21.0319 52.76 21.7519 51.95 22.7319 51.95C23.6219 51.95 24.1719 52.63 24.1719 53.72V57H24.6519V53.9C24.6619 52.76 25.3719 51.95 26.3519 51.95C27.2319 51.95 27.7919 52.64 27.7919 53.72L27.8019 57H28.2819V53.58C28.2819 52.34 27.5519 51.5 26.4419 51.5ZM35.0865 54.29C35.0865 52.72 33.9865 51.5 32.4065 51.5C30.8565 51.5 29.6865 52.71 29.6865 54.3C29.6865 55.9 30.8565 57.11 32.4065 57.11C33.5365 57.11 34.4265 56.51 34.9265 55.43H34.4065C34.0065 56.19 33.2965 56.63 32.4065 56.63C31.1765 56.63 30.2465 55.74 30.1765 54.48H35.0765C35.0765 54.42 35.0865 54.35 35.0865 54.29ZM32.4065 51.96C33.5765 51.96 34.4865 52.78 34.5965 54.02H30.1765C30.3065 52.81 31.2065 51.96 32.4065 51.96ZM39.0581 51.5C38.1681 51.5 37.3981 51.97 37.0081 52.7L36.9081 51.6H36.5481V57H37.0381V53.92C37.0381 52.84 37.9081 51.95 38.9481 51.95C40.0381 51.95 40.6781 52.67 40.6781 53.9V57H41.1681V53.8C41.1681 52.43 40.3581 51.5 39.0581 51.5Z" fill="#3A2C27"/>
<path d="M106.97 57L105.76 50H105.29L102.72 55.78L100.17 50H99.7L98.48 57H99L100.06 50.93L102.65 56.73H102.81L105.4 50.92L106.45 57H106.97ZM113.397 54.29C113.397 52.72 112.297 51.5 110.717 51.5C109.167 51.5 107.997 52.71 107.997 54.3C107.997 55.9 109.167 57.11 110.717 57.11C111.847 57.11 112.737 56.51 113.237 55.43H112.717C112.317 56.19 111.607 56.63 110.717 56.63C109.487 56.63 108.557 55.74 108.487 54.48H113.387C113.387 54.42 113.397 54.35 113.397 54.29ZM110.717 51.96C111.887 51.96 112.797 52.78 112.907 54.02H108.487C108.617 52.81 109.517 51.96 110.717 51.96ZM117.368 51.5C116.478 51.5 115.708 51.97 115.318 52.7L115.218 51.6H114.858V57H115.348V53.92C115.348 52.84 116.218 51.95 117.258 51.95C118.348 51.95 118.988 52.67 118.988 53.9V57H119.478V53.8C119.478 52.43 118.668 51.5 117.368 51.5Z" fill="#9D9D9D"/>
<path d="M174.08 57H174.63L171.61 50H171.16L168.22 57H168.76L169.56 55.09H173.26L174.08 57ZM171.39 50.71L173.06 54.62H169.76L171.39 50.71ZM178.062 57.11C179.262 57.11 180.242 56.42 180.622 55.32H180.122C179.742 56.15 178.982 56.64 178.062 56.64C176.762 56.64 175.772 55.63 175.772 54.31C175.772 52.98 176.752 51.97 178.062 51.97C178.982 51.97 179.762 52.46 180.122 53.27H180.612C180.242 52.2 179.282 51.5 178.062 51.5C176.472 51.5 175.272 52.7 175.272 54.31C175.272 55.9 176.482 57.11 178.062 57.11ZM184.317 57.11C185.517 57.11 186.497 56.42 186.877 55.32H186.377C185.997 56.15 185.237 56.64 184.317 56.64C183.017 56.64 182.027 55.63 182.027 54.31C182.027 52.98 183.007 51.97 184.317 51.97C185.237 51.97 186.017 52.46 186.377 53.27H186.867C186.497 52.2 185.537 51.5 184.317 51.5C182.727 51.5 181.527 52.7 181.527 54.31C181.527 55.9 182.737 57.11 184.317 57.11ZM193.192 54.29C193.192 52.72 192.092 51.5 190.512 51.5C188.962 51.5 187.792 52.71 187.792 54.3C187.792 55.9 188.962 57.11 190.512 57.11C191.642 57.11 192.532 56.51 193.032 55.43H192.512C192.112 56.19 191.402 56.63 190.512 56.63C189.282 56.63 188.352 55.74 188.282 54.48H193.182C193.182 54.42 193.192 54.35 193.192 54.29ZM190.512 51.96C191.682 51.96 192.592 52.78 192.702 54.02H188.282C188.412 52.81 189.312 51.96 190.512 51.96ZM196.254 57.11C197.494 57.11 198.324 56.49 198.324 55.53C198.324 54.29 197.244 54.11 196.304 53.95C195.474 53.81 194.744 53.69 194.744 52.96C194.744 52.35 195.324 51.94 196.214 51.94C197.124 51.94 197.674 52.35 197.714 53.06H198.184C198.144 52.1 197.394 51.5 196.224 51.5C195.054 51.5 194.264 52.09 194.264 52.97C194.264 54.08 195.254 54.26 196.184 54.42C197.024 54.56 197.834 54.71 197.834 55.55C197.834 56.23 197.204 56.66 196.264 56.66C195.334 56.66 194.714 56.23 194.644 55.48H194.164C194.234 56.49 195.014 57.11 196.254 57.11ZM201.395 57.11C202.635 57.11 203.465 56.49 203.465 55.53C203.465 54.29 202.385 54.11 201.445 53.95C200.615 53.81 199.885 53.69 199.885 52.96C199.885 52.35 200.465 51.94 201.355 51.94C202.265 51.94 202.815 52.35 202.855 53.06H203.325C203.285 52.1 202.535 51.5 201.365 51.5C200.195 51.5 199.405 52.09 199.405 52.97C199.405 54.08 200.395 54.26 201.325 54.42C202.165 54.56 202.975 54.71 202.975 55.55C202.975 56.23 202.345 56.66 201.405 56.66C200.475 56.66 199.855 56.23 199.785 55.48H199.305C199.375 56.49 200.155 57.11 201.395 57.11ZM207.297 57.11C208.917 57.11 210.127 55.91 210.127 54.3C210.127 52.7 208.917 51.5 207.297 51.5C205.687 51.5 204.467 52.69 204.467 54.3C204.467 55.91 205.687 57.11 207.297 57.11ZM207.297 56.64C205.967 56.64 204.967 55.65 204.967 54.31C204.967 52.96 205.957 51.97 207.297 51.97C208.637 51.97 209.627 52.96 209.627 54.3C209.627 55.65 208.637 56.64 207.297 56.64ZM213.912 51.59C213.052 51.59 212.422 51.99 212.062 52.67L211.972 51.6H211.612V57H212.102V54C212.102 52.85 212.792 52.05 213.872 52.05H214.382V51.59H213.912ZM215.424 50.49H216.044V49.8H215.424V50.49ZM215.494 57H215.984V51.6H215.494V57ZM222.871 54.29C222.871 52.72 221.771 51.5 220.191 51.5C218.641 51.5 217.471 52.71 217.471 54.3C217.471 55.9 218.641 57.11 220.191 57.11C221.321 57.11 222.211 56.51 222.711 55.43H222.191C221.791 56.19 221.081 56.63 220.191 56.63C218.961 56.63 218.031 55.74 217.961 54.48H222.861C222.861 54.42 222.871 54.35 222.871 54.29ZM220.191 51.96C221.361 51.96 222.271 52.78 222.381 54.02H217.961C218.091 52.81 218.991 51.96 220.191 51.96ZM225.932 57.11C227.172 57.11 228.002 56.49 228.002 55.53C228.002 54.29 226.922 54.11 225.982 53.95C225.152 53.81 224.422 53.69 224.422 52.96C224.422 52.35 225.002 51.94 225.892 51.94C226.802 51.94 227.352 52.35 227.392 53.06H227.862C227.822 52.1 227.072 51.5 225.902 51.5C224.732 51.5 223.942 52.09 223.942 52.97C223.942 54.08 224.932 54.26 225.862 54.42C226.702 54.56 227.512 54.71 227.512 55.55C227.512 56.23 226.882 56.66 225.942 56.66C225.012 56.66 224.392 56.23 224.322 55.48H223.842C223.912 56.49 224.692 57.11 225.932 57.11Z" fill="#9D9D9D"/>
<path d="M273.59 53.33C274.19 53.07 274.61 52.43 274.61 51.73C274.61 50.76 273.84 50 272.72 50H270.03V57H272.74C273.96 57 274.81 56.16 274.81 55.1C274.81 54.28 274.31 53.58 273.59 53.33ZM272.76 50.5C273.51 50.5 274.1 51.06 274.1 51.79C274.1 52.49 273.53 53.1 272.8 53.1H270.53V50.5H272.76ZM272.78 56.51H270.53V53.59H272.81C273.64 53.59 274.29 54.23 274.29 55.05C274.29 55.87 273.64 56.51 272.78 56.51ZM281.379 54.29C281.379 52.72 280.279 51.5 278.699 51.5C277.149 51.5 275.979 52.71 275.979 54.3C275.979 55.9 277.149 57.11 278.699 57.11C279.829 57.11 280.719 56.51 281.219 55.43H280.699C280.299 56.19 279.589 56.63 278.699 56.63C277.469 56.63 276.539 55.74 276.469 54.48H281.369C281.369 54.42 281.379 54.35 281.379 54.29ZM278.699 51.96C279.869 51.96 280.779 52.78 280.889 54.02H276.469C276.599 52.81 277.499 51.96 278.699 51.96ZM287.561 51.6L287.491 52.78C287.021 52 286.181 51.5 285.141 51.5C283.561 51.5 282.371 52.7 282.371 54.3C282.371 55.9 283.561 57.11 285.141 57.11C286.181 57.11 287.021 56.61 287.491 55.83L287.551 57H287.961V51.6H287.561ZM285.171 56.64C283.861 56.64 282.871 55.64 282.871 54.3C282.871 52.98 283.861 51.97 285.171 51.97C286.501 51.97 287.471 52.96 287.471 54.3C287.471 55.65 286.501 56.64 285.171 56.64ZM292.126 57.11C293.546 57.11 294.436 56.18 294.436 54.74V51.6H293.946V54.67C293.946 55.88 293.256 56.64 292.126 56.64C291.006 56.64 290.306 55.88 290.306 54.67V51.6H289.816V54.74C289.816 56.18 290.716 57.11 292.126 57.11ZM298.298 56.55C297.488 56.55 297.038 56.08 297.038 55.27V52.05H298.848V51.6H297.038V50.65H296.938L295.648 51.94V52.05H296.548V55.28C296.548 56.36 297.188 57 298.248 57H298.888V56.55H298.298ZM304.27 51.6L302.19 56.14L299.99 51.6H299.45L301.93 56.68L301.65 57.28C301.19 58.25 300.86 58.47 300.13 58.47H299.71V58.92H300.16C301.07 58.92 301.56 58.57 302.1 57.4L304.79 51.6H304.27Z" fill="#9D9D9D"/>
<circle cx="21" cy="21" r="18" fill="#3A2C27"/>
<path fill-rule="evenodd" clip-rule="evenodd" d="M21.25 12.2499C19.9239 12.2499 18.6521 12.7767 17.7145 13.7144C16.7768 14.6521 16.25 15.9238 16.25 17.2499C16.25 18.576 16.7768 19.8478 17.7145 20.7855C18.6521 21.7231 19.9239 22.2499 21.25 22.2499C22.5761 22.2499 23.8479 21.7231 24.7855 20.7855C25.7232 19.8478 26.25 18.576 26.25 17.2499C26.25 15.9238 25.7232 14.6521 24.7855 13.7144C23.8479 12.7767 22.5761 12.2499 21.25 12.2499ZM15 17.2499C15 16.0404 15.351 14.8569 16.0103 13.843C16.6696 12.829 17.609 12.0281 18.7144 11.5374C19.8199 11.0468 21.044 10.8874 22.2383 11.0786C23.4326 11.2699 24.5457 11.8036 25.4427 12.6149C26.3396 13.4263 26.9819 14.4804 27.2916 15.6496C27.6013 16.8188 27.5651 18.0527 27.1875 19.2017C26.8098 20.3507 26.1068 21.3654 25.1639 22.1228C24.2209 22.8802 23.0784 23.3477 21.875 23.4687V25.9999H24.375C24.5408 25.9999 24.6997 26.0658 24.8169 26.183C24.9342 26.3002 25 26.4592 25 26.6249C25 26.7907 24.9342 26.9497 24.8169 27.0669C24.6997 27.1841 24.5408 27.2499 24.375 27.2499H21.875V30.3749C21.875 30.5407 21.8092 30.6997 21.6919 30.8169C21.5747 30.9341 21.4158 30.9999 21.25 30.9999C21.0842 30.9999 20.9253 30.9341 20.8081 30.8169C20.6908 30.6997 20.625 30.5407 20.625 30.3749V27.2499H18.125C17.9592 27.2499 17.8003 27.1841 17.6831 27.0669C17.5658 26.9497 17.5 26.7907 17.5 26.6249C17.5 26.4592 17.5658 26.3002 17.6831 26.183C17.8003 26.0658 17.9592 25.9999 18.125 25.9999H20.625V23.4687C19.0834 23.3137 17.6542 22.5917 16.6148 21.4426C15.5755 20.2935 15 18.7993 15 17.2499Z" fill="white"/>
<ellipse cx="110" cy="21" rx="19" ry="18" fill="#F3F3F3"/>
<path fill-rule="evenodd" clip-rule="evenodd" d="M111.322 14.1504C111.161 14.1504 111.006 14.0898 110.892 13.9819C110.779 13.874 110.715 13.7277 110.715 13.5752C110.715 13.4226 110.779 13.2763 110.892 13.1685C111.006 13.0606 111.161 13 111.322 13H117.393C117.554 13 117.709 13.0606 117.822 13.1685C117.936 13.2763 118 13.4226 118 13.5752V19.327C118 19.4796 117.936 19.6259 117.822 19.7338C117.709 19.8416 117.554 19.9022 117.393 19.9022C117.232 19.9022 117.078 19.8416 116.964 19.7338C116.85 19.6259 116.786 19.4796 116.786 19.327V14.9637L111.772 19.7136C112.758 20.8561 113.243 22.3139 113.126 23.7853C113.009 25.2568 112.299 26.6295 111.144 27.6194C109.989 28.6093 108.477 29.1407 106.919 29.1038C105.362 29.0668 103.88 28.4643 102.778 27.4209C101.677 26.3774 101.041 24.9729 101.002 23.4977C100.963 22.0225 101.524 20.5896 102.569 19.4952C103.614 18.4009 105.063 17.7288 106.616 17.6181C108.169 17.5073 109.708 17.9664 110.914 18.9003L115.928 14.1504H111.322ZM107.072 18.7519C105.784 18.7519 104.548 19.2367 103.637 20.0996C102.726 20.9625 102.215 22.133 102.215 23.3533C102.215 24.5737 102.726 25.7441 103.637 26.6071C104.548 27.47 105.784 27.9548 107.072 27.9548C108.36 27.9548 109.595 27.47 110.506 26.6071C111.417 25.7441 111.929 24.5737 111.929 23.3533C111.929 22.133 111.417 20.9625 110.506 20.0996C109.595 19.2367 108.36 18.7519 107.072 18.7519Z" fill="#9D9D9D"/>
<circle cx="199" cy="21" r="18" fill="#F3F3F3"/>
<path d="M195.742 14C195.369 14 195 14.0803 194.66 14.2356C194.321 14.3908 194.019 14.6173 193.775 14.8996L189.471 19.8799C189.166 20.2331 188.999 20.6839 189 21.15V25.05C189 25.912 189.342 26.7386 189.952 27.3481C190.561 27.9576 191.388 28.3 192.25 28.3H194.85C195.712 28.3 196.539 27.9576 197.148 27.3481C197.758 26.7386 198.1 25.912 198.1 25.05V23.1H200.7V25.05C200.7 25.912 201.042 26.7386 201.652 27.3481C202.261 27.9576 203.088 28.3 203.95 28.3H206.55C207.412 28.3 208.239 27.9576 208.848 27.3481C209.458 26.7386 209.8 25.912 209.8 25.05V21.15C209.8 20.5923 209.566 20.0905 209.192 19.7356L205.025 14.9022C204.781 14.6192 204.479 14.3922 204.139 14.2365C203.8 14.0808 203.431 14.0001 203.057 14H202C201.828 14 201.662 14.0685 201.54 14.1904C201.418 14.3123 201.35 14.4776 201.35 14.65C201.35 14.8224 201.418 14.9877 201.54 15.1096C201.662 15.2315 201.828 15.3 202 15.3H203.057C203.244 15.3001 203.428 15.3404 203.598 15.4182C203.768 15.4961 203.919 15.6096 204.041 15.7511L207.014 19.2H202.65C202.133 19.2 201.637 19.4054 201.271 19.7711C200.905 20.1368 200.7 20.6328 200.7 21.15V21.8H198.1V21.15C198.1 20.6328 197.895 20.1368 197.529 19.7711C197.163 19.4054 196.667 19.2 196.15 19.2H191.776L194.759 15.7498C194.881 15.6087 195.032 15.4955 195.201 15.4179C195.371 15.3403 195.555 15.3001 195.742 15.3H196.8C196.972 15.3 197.138 15.2315 197.26 15.1096C197.382 14.9877 197.45 14.8224 197.45 14.65C197.45 14.4776 197.382 14.3123 197.26 14.1904C197.138 14.0685 196.972 14 196.8 14H195.742ZM196.8 21.15V25.05C196.8 25.5672 196.595 26.0632 196.229 26.4289C195.863 26.7946 195.367 27 194.85 27H192.25C191.733 27 191.237 26.7946 190.871 26.4289C190.505 26.0632 190.3 25.5672 190.3 25.05V21.15C190.3 20.9776 190.368 20.8123 190.49 20.6904C190.612 20.5685 190.778 20.5 190.95 20.5H196.15C196.322 20.5 196.488 20.5685 196.61 20.6904C196.732 20.8123 196.8 20.9776 196.8 21.15ZM202 25.05V21.15C202 20.9776 202.068 20.8123 202.19 20.6904C202.312 20.5685 202.478 20.5 202.65 20.5H207.85C208.006 20.5 208.149 20.5546 208.261 20.6469L208.332 20.7288L208.34 20.7236C208.443 20.8417 208.5 20.9932 208.5 21.15V25.05C208.5 25.5672 208.295 26.0632 207.929 26.4289C207.563 26.7946 207.067 27 206.55 27H203.95C203.433 27 202.937 26.7946 202.571 26.4289C202.205 26.0632 202 25.5672 202 25.05Z" fill="#9D9D9D"/>
<circle cx="287" cy="21" r="18" fill="#F3F3F3"/>
<path d="M287 23V15" stroke="#9D9D9D" stroke-linecap="round" stroke-linejoin="round"/>
<path d="M285 23H289V29C289 30.1046 288.105 31 287 31C285.895 31 285 30.1046 285 29V23Z" stroke="#9D9D9D" stroke-linecap="round" stroke-linejoin="round"/>
<path d="M285 11H289L288 15H286L285 11Z" stroke="#9D9D9D" stroke-linecap="round" stroke-linejoin="round"/>
<circle cx="21" cy="21" r="20.5" stroke="#3A2C27"/>
</svg>
