<svg width="166" height="42" viewBox="0 0 166 42" fill="none" xmlns="http://www.w3.org/2000/svg">
<path fill-rule="evenodd" clip-rule="evenodd" d="M24.1905 13.5127C24.9605 12.5832 25.4775 11.2879 25.3363 10C24.229 10.0449 22.8888 10.7379 22.0959 11.6674C21.3837 12.4906 20.7603 13.8078 20.929 15.0701C22.1628 15.1663 23.4242 14.4431 24.1923 13.5127H24.1905ZM26.9607 21.6875C26.9918 25.0168 29.8812 26.1251 29.9123 26.1397C29.8894 26.2177 29.4522 27.7183 28.3907 29.2683C27.474 30.6085 26.5225 31.9441 25.0228 31.9716C23.5498 31.9982 23.0768 31.098 21.3919 31.098C19.7089 31.098 19.1828 31.9441 17.7876 31.9982C16.3411 32.0532 15.2393 30.5489 14.3134 29.2142C12.4251 26.4826 10.9813 21.4959 12.9201 18.1299C13.8817 16.4579 15.6032 15.3992 17.4713 15.3726C18.8922 15.3451 20.2333 16.3287 21.1013 16.3287C21.9703 16.3287 23.6002 15.1462 25.3134 15.3194C26.0312 15.3497 28.0442 15.6091 29.3376 17.502C29.2331 17.5662 26.935 18.9045 26.9598 21.6875" fill="#332218"/>
<path fill-rule="evenodd" clip-rule="evenodd" d="M24.1905 13.5127C24.9605 12.5832 25.4775 11.2879 25.3363 10C24.229 10.0449 22.8888 10.7379 22.0959 11.6674C21.3837 12.4906 20.7603 13.8078 20.929 15.0701C22.1628 15.1663 23.4242 14.4431 24.1923 13.5127H24.1905ZM26.9607 21.6875C26.9918 25.0168 29.8812 26.1251 29.9123 26.1397C29.8894 26.2177 29.4522 27.7183 28.3907 29.2683C27.474 30.6085 26.5225 31.9441 25.0228 31.9716C23.5498 31.9982 23.0768 31.098 21.3919 31.098C19.7089 31.098 19.1828 31.9441 17.7876 31.9982C16.3411 32.0532 15.2393 30.5489 14.3134 29.2142C12.4251 26.4826 10.9813 21.4959 12.9201 18.1299C13.8817 16.4579 15.6032 15.3992 17.4713 15.3726C18.8922 15.3451 20.2333 16.3287 21.1013 16.3287C21.9703 16.3287 23.6002 15.1462 25.3134 15.3194C26.0312 15.3497 28.0442 15.6091 29.3376 17.502C29.2331 17.5662 26.935 18.9045 26.9598 21.6875" fill="#332218"/>
<rect opacity="0.14" x="0.5" y="0.5" width="41" height="41" rx="20.5" fill="white" stroke="#332218"/>
<g clip-path="url(#clip0_22_1021)">
<path d="M76.8272 18.9513C77.2561 17.6537 78.0838 16.5247 79.1923 15.7253C80.3008 14.926 81.6334 14.4971 83.0001 14.4999C84.5492 14.4999 85.9499 15.0499 87.0499 15.9501L90.2509 12.75C88.3002 11.0496 85.8005 10 83.0001 10C78.6642 10 74.9316 12.4732 73.1367 16.0958L76.8272 18.9513Z" fill="#EA4335"/>
<path d="M86.7032 26.5119C85.704 27.1563 84.4354 27.5001 82.9999 27.5001C81.6387 27.5029 80.3111 27.0774 79.2051 26.284C78.0991 25.4905 77.2707 24.3693 76.8371 23.079L73.1338 25.8904C74.0424 27.7295 75.4486 29.2769 77.1926 30.3569C78.9366 31.4369 80.9486 32.0061 82.9999 32C85.6885 32 88.257 31.0439 90.181 29.25L86.7041 26.5119H86.7032Z" fill="#34A853"/>
<path d="M90.1812 29.25C92.1932 27.3727 93.4995 24.5787 93.4995 21C93.4995 20.3492 93.3996 19.6498 93.2502 18.9999H83V23.2505H88.8997C88.6091 24.6795 87.8272 25.786 86.7043 26.512L90.1812 29.25Z" fill="#4A90E2"/>
<path d="M76.8374 23.079C76.6131 22.4088 76.4992 21.7067 76.5 21C76.5 20.2832 76.6146 19.5947 76.8273 18.9512L73.1368 16.0958C72.3818 17.62 71.9926 19.2991 72.0001 21C72.0001 22.76 72.408 24.4192 73.134 25.8904L76.8374 23.079Z" fill="#FBBC05"/>
</g>
<g clip-path="url(#clip1_22_1021)">
<path d="M76.8272 18.9513C77.2561 17.6537 78.0838 16.5247 79.1923 15.7253C80.3008 14.926 81.6334 14.4971 83.0001 14.4999C84.5492 14.4999 85.9499 15.0499 87.0499 15.9501L90.2509 12.75C88.3002 11.0496 85.8005 10 83.0001 10C78.6642 10 74.9316 12.4732 73.1367 16.0958L76.8272 18.9513Z" fill="#EA4335"/>
<path d="M86.7032 26.5119C85.704 27.1563 84.4354 27.5001 82.9999 27.5001C81.6387 27.5029 80.3111 27.0774 79.2051 26.284C78.0991 25.4905 77.2707 24.3693 76.8371 23.079L73.1338 25.8904C74.0424 27.7295 75.4486 29.2769 77.1926 30.3569C78.9366 31.4369 80.9486 32.0061 82.9999 32C85.6885 32 88.257 31.0439 90.181 29.25L86.7041 26.5119H86.7032Z" fill="#34A853"/>
<path d="M90.1812 29.25C92.1932 27.3727 93.4995 24.5787 93.4995 21C93.4995 20.3492 93.3996 19.6498 93.2502 18.9999H83V23.2505H88.8997C88.6091 24.6795 87.8272 25.786 86.7043 26.512L90.1812 29.25Z" fill="#4A90E2"/>
<path d="M76.8374 23.079C76.6131 22.4088 76.4992 21.7067 76.5 21C76.5 20.2832 76.6146 19.5947 76.8273 18.9512L73.1368 16.0958C72.3818 17.62 71.9926 19.2991 72.0001 21C72.0001 22.76 72.408 24.4192 73.134 25.8904L76.8374 23.079Z" fill="#FBBC05"/>
</g>
<rect opacity="0.14" x="62.5" y="0.5" width="41" height="41" rx="20.5" fill="white" stroke="#332218"/>
<rect opacity="0.14" x="124.5" y="0.5" width="41" height="41" rx="20.5" fill="white" stroke="#332218"/>
<path fill-rule="evenodd" clip-rule="evenodd" d="M142.136 31V21.7243H139V17.8592H142.136V14.767C142.136 11.5718 144.187 10 147.078 10C148.462 10 149.653 10.1019 150 10.147V13.486H147.995C146.423 13.486 146.056 14.2241 146.056 15.3046V17.8592H149.976L149.192 21.7232H146.056L146.119 31" fill="#3266CE"/>
<path fill-rule="evenodd" clip-rule="evenodd" d="M142.136 31V21.7243H139V17.8592H142.136V14.767C142.136 11.5718 144.187 10 147.078 10C148.462 10 149.653 10.1019 150 10.147V13.486H147.995C146.423 13.486 146.056 14.2241 146.056 15.3046V17.8592H149.976L149.192 21.7232H146.056L146.119 31" fill="#3266CE"/>
<defs>
<clipPath id="clip0_22_1021">
<rect width="22" height="22" fill="white" transform="translate(72 10)"/>
</clipPath>
<clipPath id="clip1_22_1021">
<rect width="22" height="22" fill="white" transform="translate(72 10)"/>
</clipPath>
</defs>
</svg>
