<svg width="47" height="58" viewBox="0 0 47 58" fill="none" xmlns="http://www.w3.org/2000/svg">
<path d="M28.4774 51.5153C28.6966 51.2959 29.0008 51.1698 29.311 51.1698C29.6211 51.1698 29.9254 51.2959 30.1447 51.5153C30.3641 51.7348 30.4902 52.0389 30.4902 52.349C30.4902 52.6592 30.3642 52.9634 30.1447 53.1827C29.9254 53.402 29.6211 53.5283 29.311 53.5283C29.0008 53.5283 28.6966 53.4021 28.4774 53.1827C28.2579 52.9634 28.1317 52.6592 28.1317 52.349C28.1317 52.0389 28.2579 51.7347 28.4774 51.5153Z" fill="black"/>
<path d="M13.6488 3.52832H20.4455C21.0434 3.52832 21.5283 4.05627 21.5283 4.70757C21.5283 5.35886 21.0434 5.88681 20.4455 5.88681H13.6488C13.0509 5.88681 12.5661 5.35886 12.5661 4.70757C12.5661 4.05627 13.0509 3.52832 13.6488 3.52832Z" fill="black"/>
<path fill-rule="evenodd" clip-rule="evenodd" d="M2.99601 33.572V41.8068H19.656L16.122 36.8111C15.279 35.6196 15.1706 34.073 15.8391 32.7747C16.5076 31.4765 17.8276 30.67 19.2842 30.67C20.113 30.67 20.9356 30.9435 21.6007 31.4404L28.6189 36.6855C28.8742 36.8764 29.1904 36.9815 29.5089 36.9815C30.3304 36.9815 30.9985 36.3111 30.9985 35.487V34.115V8.70326H2.99601V33.572ZM0.773586 4.25673V33.572V47.2519C0.773586 49.4742 2.57586 51.2822 4.79106 51.2822H22.8387V56.1872C22.8387 56.8027 23.3363 57.3019 23.9499 57.3019C24.5635 57.3019 25.0611 56.8027 25.0611 56.1872V48.0494H44.7776V56.1872C44.7776 56.8027 45.2752 57.3019 45.8888 57.3019C46.5024 57.3019 47 56.8027 47 56.1872V48.0494C47 46.8201 46.003 45.8199 44.7776 45.8199H43.7789V34.1629C43.7789 29.8378 42.7784 25.4976 40.8854 21.6117C39.0728 17.8907 36.4285 14.5634 33.221 11.9541V4.25673C33.221 2.03435 31.4187 0.22644 29.2035 0.22644H4.79106C2.57586 0.22644 0.773586 2.03435 0.773586 4.25673ZM2.9959 47.2519V44.0363H21.2198C21.2287 44.0363 21.2375 44.0357 21.2463 44.0351C21.2522 44.0347 21.2581 44.0343 21.264 44.0341C21.9762 44.907 22.8127 45.6558 23.738 46.2622C23.1935 46.6689 22.8386 47.3176 22.8386 48.0494V49.0527H4.79095C3.8012 49.0527 2.9959 48.2448 2.9959 47.2519ZM29.5089 39.211C28.7152 39.211 27.9277 38.949 27.2912 38.4734L20.2731 33.2283C19.9892 33.0163 19.638 32.8994 19.2843 32.8994C18.6532 32.8994 18.1035 33.2353 17.8139 33.7979C17.5243 34.3604 17.5694 35.0044 17.9347 35.5208L22.6239 42.1496C24.2497 44.4477 26.8975 45.8199 29.7066 45.8199H41.5566V34.1629C41.5566 26.7713 38.5452 19.8745 33.2211 14.9026V34.115V35.487C33.2211 37.5404 31.5558 39.211 29.5089 39.211ZM30.9987 4.2567V6.47373H2.99612V4.2567C2.99612 3.26379 3.80141 2.45593 4.79128 2.45593H29.2036C30.1934 2.45593 30.9987 3.26379 30.9987 4.2567Z" fill="black"/>
<path d="M24.1924 18.9575C23.8403 18.9575 23.5548 19.2519 23.5548 19.615V20.2773C23.5538 22.005 22.9005 23.6288 21.7153 24.8497C20.5308 26.0697 18.9569 26.7414 17.283 26.7414H17.2793C13.821 26.7394 11.009 23.8363 11.011 20.2699C11.012 18.5423 11.6653 16.9184 12.8506 15.6975C14.035 14.4775 15.6089 13.8057 17.2828 13.8057H17.2865C18.1705 13.8062 19.0282 13.9947 19.8356 14.3657C20.1574 14.5135 20.5342 14.3644 20.6776 14.0326C20.8209 13.7009 20.6763 13.3122 20.3546 13.1644C19.383 12.7179 18.351 12.4912 17.2872 12.4906H17.2828C15.2687 12.4906 13.3745 13.2991 11.9493 14.7671C10.523 16.2362 9.73691 18.1902 9.73574 20.2692C9.7346 22.3481 10.5185 24.303 11.9432 25.7739C13.3679 27.2447 15.2627 28.0554 17.2786 28.0566H17.283C19.2972 28.0566 21.1913 27.2482 22.6165 25.7802C24.0428 24.311 24.8289 22.357 24.8301 20.2777V19.6151C24.8301 19.2519 24.5446 18.9575 24.1924 18.9575Z" fill="black" stroke="black" stroke-width="1.6"/>
<path d="M26.052 12.2075C25.7945 11.9561 25.3771 11.9561 25.1196 12.2075L17.727 19.4267L16.0499 17.789C15.7924 17.5375 15.3749 17.5375 15.1175 17.789C14.86 18.0404 14.86 18.4481 15.1175 18.6995L17.2608 20.7926C17.3895 20.9183 17.5583 20.9812 17.727 20.9812C17.8958 20.9812 18.0645 20.9183 18.1933 20.7926L26.052 13.118C26.3095 12.8666 26.3095 12.4589 26.052 12.2075Z" fill="black" stroke="black" stroke-width="1.6"/>
<path d="M16.2137 45.8552C16.4329 45.6358 16.7372 45.5095 17.0473 45.5095C17.3575 45.5095 17.6617 45.6357 17.881 45.8552C18.1004 46.0744 18.2266 46.3786 18.2266 46.6888C18.2266 47.0002 18.1005 47.3032 17.881 47.5225C17.6617 47.7431 17.3575 47.868 17.0473 47.868C16.7372 47.868 16.4329 47.743 16.2137 47.5225C15.9944 47.3032 15.8681 47.0001 15.8681 46.6888C15.8681 46.3786 15.9943 46.0744 16.2137 45.8552Z" fill="black"/>
</svg>
